<svg xmlns="http://www.w3.org/2000/svg" viewBox="0 0 23 23"><path d="M1 1h7v7h-7zM9 1h1v3h-1zM15 1h7v7h-7zM2 2v5h5v-5zM11 2h1v3h1v-1h1v2h-2v2h-1v-2h-2v-1h1v-1h1zM13 2h1v1h-1zM16 2v5h5v-5zM3 3h3v3h-3zM17 3h3v3h-3zM9 7h1v1h-1zM13 7h1v1h-1zM10 8h1v1h-1zM1 9h1v1h-1zM4 9h6v1h2v1h1v-1h1v-1h1v1h1v1h-1v3h-1v-1h-3v-1h-5v2h-2v-1h1v-2h4v-1h-4v1h-1zM12 9h1v1h-1zM17 9h1v1h-1zM19 9h3v1h-2v1h2v1h-1v1h-2v-1h-1v-2h1zM2 10h1v1h1v1h-3v-1h1zM1 13h2v1h-2zM7 13h1v1h-1zM9 13h2v1h-1v2h2v-1h2v1h3v1h-3v1h-1v1h-1v-1h-2v1h-1zM18 13h1v1h-1zM21 13h1v1h-1zM11 14h1v1h-1zM15 14h1v1h-1zM17 14h1v1h2v1h2v1h-1v1h-1v-1h-1v1h-2v-1h1v-1h-1zM20 14h1v1h-1zM1 15h7v7h-7zM2 16v5h5v-5zM3 17h3v3h-3zM14 18h2v1h-1v1h-1v1h-4v-1h1v-1h1v1h1v-1h1zM17 19h2v1h1v-1h2v2h-3v1h-5v-1h1v-1h2zM9 21h1v1h-1z"/></svg>