<svg xmlns="http://www.w3.org/2000/svg" viewBox="0 0 23 23"><path d="M1 1h7v7h-7zM9 1h1v2h-1zM12 1h2v2h-1v-1h-1zM15 1h7v7h-7zM2 2v5h5v-5zM16 2v5h5v-5zM3 3h3v3h-3zM11 3h2v1h-2zM17 3h3v3h-3zM9 4h2v1h2v1h-2v1h-1v-2h-1zM9 7h1v1h1v1h-2zM11 7h1v1h-1zM13 7h1v1h-1zM12 8h1v1h1v1h-2zM1 9h1v1h-1zM3 9h2v1h-1v1h-2v-1h1zM6 9h3v1h-3zM15 9h1v1h-1zM18 9h1v1h1v1h-1v2h-1v-2h-1v1h-1v-2h2zM20 9h2v3h-2v-1h1v-1h-1zM5 10h1v1h-1zM9 10h1v1h1v1h-2v2h-3v-2h1v1h1v-1h-1v-1h2zM11 10h1v1h-1zM14 10h1v2h-1zM4 11h1v2h-3v1h-1v-2h3zM13 12h1v1h-1zM10 13h1v3h-1v1h-1v-3h1zM15 13h1v2h-3v-1h2zM17 13h1v1h2v1h-1v1h1v1h1v2h-3v-1h-2v-1h1v-1h-1v-1h1zM20 13h1v1h-1zM1 15h7v7h-7zM12 15h1v1h2v1h-2v1h-1v1h-1v-3h1zM2 16v5h5v-5zM21 16h1v1h-1zM3 17h3v3h-3zM9 18h1v2h-1zM13 18h1v2h-2v-1h1zM15 18h1v2h2v1h2v1h-3v-1h-1v1h-3v-1h1v-1h1zM10 20h2v1h-2zM21 20h1v1h-1zM9 21h1v1h-1z"/></svg>